<?xml version="1.0" encoding="utf-8"?>
<!-- Generator: Adobe Illustrator 16.0.0, SVG Export Plug-In . SVG Version: 6.00 Build 0)  -->
<!DOCTYPE svg PUBLIC "-//W3C//DTD SVG 1.1//EN" "http://www.w3.org/Graphics/SVG/1.1/DTD/svg11.dtd">
<svg version="1.1" id="Layer_1" xmlns="http://www.w3.org/2000/svg" xmlns:xlink="http://www.w3.org/1999/xlink" x="0px" y="0px"
	 width="50px" height="50px" viewBox="0 0 50 50" enable-background="new 0 0 50 50" xml:space="preserve">
<path fill="#FEE968" d="M39.841,32.84l-10.558-3.298c2.281-2.716,3.668-7.024,3.668-11.055c0-6.101-3.477-10.039-8.855-10.039
	c-5.381,0-8.857,3.938-8.857,10.039c0,4.03,1.387,8.339,3.67,11.055L8.35,32.839c-1.045,0.326-1.756,1.292-1.756,2.386v3.827
	c0,1.382,1.119,2.5,2.5,2.5h30.002c1.381,0,2.5-1.118,2.5-2.5v-3.827C41.596,34.132,40.885,33.166,39.841,32.84z"/>
</svg>
